<svg width="387" height="292" viewBox="0 0 387 292" fill="none" xmlns="http://www.w3.org/2000/svg">
<rect width="48.375" height="260" transform="matrix(-1 0 0 1 387 32)" fill="url(#paint0_linear_9947_1610)" fill-opacity="0.5"/>
<rect width="48.375" height="225" transform="matrix(-1 0 0 1 338.625 67)" fill="url(#paint1_linear_9947_1610)" fill-opacity="0.5"/>
<rect width="48.375" height="190" transform="matrix(-1 0 0 1 290.25 102)" fill="url(#paint2_linear_9947_1610)" fill-opacity="0.5"/>
<rect width="48.375" height="156" transform="matrix(-1 0 0 1 241.875 136)" fill="url(#paint3_linear_9947_1610)" fill-opacity="0.5"/>
<rect width="48.375" height="120" transform="matrix(-1 0 0 1 193.5 172)" fill="url(#paint4_linear_9947_1610)" fill-opacity="0.5"/>
<rect width="48.375" height="85" transform="matrix(-1 0 0 1 145.125 207)" fill="url(#paint5_linear_9947_1610)" fill-opacity="0.5"/>
<rect width="48.375" height="50" transform="matrix(-1 0 0 1 96.75 242)" fill="url(#paint6_linear_9947_1610)" fill-opacity="0.5"/>
<rect width="48.375" height="25" transform="matrix(-1 0 0 1 48.375 267)" fill="url(#paint7_linear_9947_1610)" fill-opacity="0.5"/>
<line x1="0.75" y1="241.25" x2="386.25" y2="241.25" stroke="white" stroke-opacity="0.35" stroke-width="1.5" stroke-linecap="round" stroke-dasharray="1 3"/>
<line x1="0.75" y1="135.25" x2="386.25" y2="135.25" stroke="white" stroke-opacity="0.35" stroke-width="1.5" stroke-linecap="round" stroke-dasharray="1 3"/>
<line x1="0.75" y1="31.25" x2="386.25" y2="31.25" stroke="white" stroke-opacity="0.35" stroke-width="1.5" stroke-linecap="round" stroke-dasharray="1 3"/>
<path d="M5.536 18.312H4.176V16.328L4.288 16.104V6.728L4.176 6.504V4.52H5.536V6.504L5.44 6.728V16.104L5.536 16.328V18.312ZM4.736 16.968C4.10667 16.968 3.53067 16.888 3.008 16.728C2.496 16.5573 2.048 16.3333 1.664 16.056C1.28 15.768 0.954667 15.4587 0.688 15.128L1.856 14.072C2.08 14.3493 2.336 14.6 2.624 14.824C2.92267 15.048 3.25333 15.2293 3.616 15.368C3.98933 15.496 4.39467 15.56 4.832 15.56C5.32267 15.56 5.73333 15.48 6.064 15.32C6.40533 15.16 6.66133 14.952 6.832 14.696C7.00267 14.4293 7.088 14.1307 7.088 13.8C7.088 13.5227 7.03467 13.2773 6.928 13.064C6.82133 12.8507 6.64 12.6693 6.384 12.52C6.128 12.36 5.78133 12.2373 5.344 12.152L4.4 11.96C3.6 11.7893 2.94933 11.5653 2.448 11.288C1.95733 11.0107 1.59467 10.6747 1.36 10.28C1.136 9.87467 1.024 9.4 1.024 8.856C1.024 8.28 1.168 7.768 1.456 7.32C1.744 6.872 2.176 6.52 2.752 6.264C3.33867 5.99733 4.06933 5.864 4.944 5.864C5.81867 5.864 6.56 6.024 7.168 6.344C7.776 6.664 8.26667 7.06933 8.64 7.56L7.456 8.536C7.22133 8.22667 6.88533 7.93867 6.448 7.672C6.01067 7.40533 5.47733 7.272 4.848 7.272C4.10133 7.272 3.552 7.42133 3.2 7.72C2.85867 8.008 2.688 8.36 2.688 8.776C2.688 9.08533 2.752 9.34667 2.88 9.56C3.008 9.76267 3.2 9.928 3.456 10.056C3.72267 10.184 4.04267 10.2907 4.416 10.376L5.456 10.616C6.224 10.7867 6.848 11.0053 7.328 11.272C7.81867 11.5387 8.18133 11.8693 8.416 12.264C8.65067 12.648 8.768 13.1227 8.768 13.688C8.768 14.296 8.608 14.8507 8.288 15.352C7.97867 15.8533 7.52533 16.248 6.928 16.536C6.33067 16.824 5.6 16.968 4.736 16.968ZM18.5541 17H11.0341V15.496H14.1061V7.144H13.9781L11.3861 9.912L10.2821 8.92L13.1141 5.832H15.8981V15.496H18.5541V17ZM21.4759 14.776C21.8812 14.776 22.1745 14.8773 22.3559 15.08C22.5479 15.2827 22.6439 15.544 22.6439 15.864V16.12C22.6439 16.6427 22.4999 17.192 22.2119 17.768C21.9345 18.344 21.5559 18.8293 21.0759 19.224H19.7799C20.1212 18.8827 20.4039 18.5467 20.6279 18.216C20.8519 17.896 21.0225 17.5387 21.1399 17.144C20.8625 17.0907 20.6545 16.9733 20.5159 16.792C20.3879 16.6 20.3239 16.376 20.3239 16.12V15.864C20.3239 15.544 20.4145 15.2827 20.5959 15.08C20.7879 14.8773 21.0812 14.776 21.4759 14.776ZM32.4373 15.464V17H24.8533V15.272L28.4213 12.088C28.9866 11.5867 29.4186 11.1013 29.7173 10.632C30.0266 10.152 30.1813 9.66133 30.1813 9.16V8.952C30.1813 8.41867 30.0159 7.99733 29.6853 7.688C29.3653 7.368 28.9279 7.208 28.3733 7.208C27.7653 7.208 27.2959 7.37867 26.9653 7.72C26.6453 8.06133 26.4159 8.47733 26.2773 8.968L24.6933 8.36C24.8533 7.89067 25.0879 7.448 25.3973 7.032C25.7066 6.616 26.1173 6.28 26.6293 6.024C27.1413 5.768 27.7706 5.64 28.5173 5.64C29.2746 5.64 29.9199 5.784 30.4533 6.072C30.9866 6.34933 31.3919 6.73867 31.6693 7.24C31.9573 7.73067 32.1013 8.296 32.1013 8.936C32.1013 9.544 31.9839 10.0933 31.7493 10.584C31.5146 11.064 31.1946 11.5173 30.7893 11.944C30.3839 12.36 29.9306 12.7813 29.4293 13.208L26.8053 15.464H32.4373ZM38.015 17H36.111L40.159 7.32H35.935V9.384H34.383V5.832H41.951V7.4L38.015 17ZM45.2728 14.776C45.6781 14.776 45.9714 14.8773 46.1528 15.08C46.3448 15.2827 46.4408 15.544 46.4408 15.864V16.12C46.4408 16.6427 46.2968 17.192 46.0088 17.768C45.7314 18.344 45.3528 18.8293 44.8728 19.224H43.5768C43.9181 18.8827 44.2008 18.5467 44.4248 18.216C44.6488 17.896 44.8194 17.5387 44.9368 17.144C44.6594 17.0907 44.4514 16.9733 44.3128 16.792C44.1848 16.6 44.1208 16.376 44.1208 16.12V15.864C44.1208 15.544 44.2114 15.2827 44.3928 15.08C44.5848 14.8773 44.8781 14.776 45.2728 14.776ZM52.3781 17.192C51.4608 17.192 50.6981 16.9627 50.0901 16.504C49.4928 16.0453 49.0501 15.3893 48.7621 14.536C48.4848 13.672 48.3461 12.632 48.3461 11.416C48.3461 10.2 48.4848 9.16 48.7621 8.296C49.0501 7.432 49.4928 6.776 50.0901 6.328C50.6981 5.86933 51.4608 5.64 52.3781 5.64C53.3061 5.64 54.0688 5.86933 54.6661 6.328C55.2635 6.776 55.7008 7.432 55.9781 8.296C56.2661 9.16 56.4101 10.2 56.4101 11.416C56.4101 12.632 56.2661 13.672 55.9781 14.536C55.7008 15.3893 55.2635 16.0453 54.6661 16.504C54.0688 16.9627 53.3061 17.192 52.3781 17.192ZM52.3781 15.656C52.9008 15.656 53.3115 15.5227 53.6101 15.256C53.9195 14.9787 54.1435 14.5947 54.2821 14.104C54.4208 13.6133 54.4901 13.0427 54.4901 12.392V10.44C54.4901 9.78933 54.4208 9.21867 54.2821 8.728C54.1435 8.23733 53.9195 7.85867 53.6101 7.592C53.3115 7.31467 52.9008 7.176 52.3781 7.176C51.8661 7.176 51.4555 7.31467 51.1461 7.592C50.8368 7.85867 50.6128 8.23733 50.4741 8.728C50.3355 9.21867 50.2661 9.78933 50.2661 10.44V12.392C50.2661 13.0427 50.3355 13.6133 50.4741 14.104C50.6128 14.5947 50.8368 14.9787 51.1461 15.256C51.4555 15.5227 51.8661 15.656 52.3781 15.656ZM61.9719 17.192C61.0545 17.192 60.2919 16.9627 59.6839 16.504C59.0865 16.0453 58.6439 15.3893 58.3559 14.536C58.0785 13.672 57.9399 12.632 57.9399 11.416C57.9399 10.2 58.0785 9.16 58.3559 8.296C58.6439 7.432 59.0865 6.776 59.6839 6.328C60.2919 5.86933 61.0545 5.64 61.9719 5.64C62.8999 5.64 63.6625 5.86933 64.2599 6.328C64.8572 6.776 65.2945 7.432 65.5719 8.296C65.8599 9.16 66.0039 10.2 66.0039 11.416C66.0039 12.632 65.8599 13.672 65.5719 14.536C65.2945 15.3893 64.8572 16.0453 64.2599 16.504C63.6625 16.9627 62.8999 17.192 61.9719 17.192ZM61.9719 15.656C62.4945 15.656 62.9052 15.5227 63.2039 15.256C63.5132 14.9787 63.7372 14.5947 63.8759 14.104C64.0145 13.6133 64.0839 13.0427 64.0839 12.392V10.44C64.0839 9.78933 64.0145 9.21867 63.8759 8.728C63.7372 8.23733 63.5132 7.85867 63.2039 7.592C62.9052 7.31467 62.4945 7.176 61.9719 7.176C61.4599 7.176 61.0492 7.31467 60.7399 7.592C60.4305 7.85867 60.2065 8.23733 60.0679 8.728C59.9292 9.21867 59.8599 9.78933 59.8599 10.44V12.392C59.8599 13.0427 59.9292 13.6133 60.0679 14.104C60.2065 14.5947 60.4305 14.9787 60.7399 15.256C61.0492 15.5227 61.4599 15.656 61.9719 15.656ZM71.5656 17.192C70.6483 17.192 69.8856 16.9627 69.2776 16.504C68.6803 16.0453 68.2376 15.3893 67.9496 14.536C67.6723 13.672 67.5336 12.632 67.5336 11.416C67.5336 10.2 67.6723 9.16 67.9496 8.296C68.2376 7.432 68.6803 6.776 69.2776 6.328C69.8856 5.86933 70.6483 5.64 71.5656 5.64C72.4936 5.64 73.2563 5.86933 73.8536 6.328C74.451 6.776 74.8883 7.432 75.1656 8.296C75.4536 9.16 75.5976 10.2 75.5976 11.416C75.5976 12.632 75.4536 13.672 75.1656 14.536C74.8883 15.3893 74.451 16.0453 73.8536 16.504C73.2563 16.9627 72.4936 17.192 71.5656 17.192ZM71.5656 15.656C72.0883 15.656 72.499 15.5227 72.7976 15.256C73.107 14.9787 73.331 14.5947 73.4696 14.104C73.6083 13.6133 73.6776 13.0427 73.6776 12.392V10.44C73.6776 9.78933 73.6083 9.21867 73.4696 8.728C73.331 8.23733 73.107 7.85867 72.7976 7.592C72.499 7.31467 72.0883 7.176 71.5656 7.176C71.0536 7.176 70.643 7.31467 70.3336 7.592C70.0243 7.85867 69.8003 8.23733 69.6616 8.728C69.523 9.21867 69.4536 9.78933 69.4536 10.44V12.392C69.4536 13.0427 69.523 13.6133 69.6616 14.104C69.8003 14.5947 70.0243 14.9787 70.3336 15.256C70.643 15.5227 71.0536 15.656 71.5656 15.656Z" fill="white"/>
<path d="M252.208 17H250.32L249.344 13.976H245.168L244.176 17H242.352L246.16 5.832H248.416L252.208 17ZM248.896 12.424L247.792 9.112L247.28 7.496H247.2L246.688 9.112L245.584 12.424H248.896ZM255.555 17H253.811V8.68H255.555V10.056H255.635C255.816 9.608 256.088 9.23467 256.451 8.936C256.824 8.63733 257.331 8.488 257.971 8.488C258.824 8.488 259.485 8.77067 259.955 9.336C260.435 9.90133 260.675 10.696 260.675 11.72V17H258.931V11.928C258.931 11.2773 258.803 10.792 258.547 10.472C258.301 10.1413 257.907 9.976 257.363 9.976C257.053 9.976 256.76 10.0293 256.483 10.136C256.216 10.232 255.992 10.3867 255.811 10.6C255.64 10.8133 255.555 11.08 255.555 11.4V17ZM264.836 17H263.092V8.68H264.836V10.056H264.916C265.097 9.608 265.369 9.23467 265.732 8.936C266.105 8.63733 266.612 8.488 267.252 8.488C268.105 8.488 268.766 8.77067 269.236 9.336C269.716 9.90133 269.956 10.696 269.956 11.72V17H268.212V11.928C268.212 11.2773 268.084 10.792 267.828 10.472C267.582 10.1413 267.188 9.976 266.644 9.976C266.334 9.976 266.041 10.0293 265.764 10.136C265.497 10.232 265.273 10.3867 265.092 10.6C264.921 10.8133 264.836 11.08 264.836 11.4V17ZM277.413 17V15.624H277.333C277.184 16.04 276.928 16.408 276.565 16.728C276.213 17.0373 275.69 17.192 274.997 17.192C274.154 17.192 273.493 16.9147 273.013 16.36C272.533 15.7947 272.293 15 272.293 13.976V8.68H274.037V13.752C274.037 14.392 274.165 14.8827 274.421 15.224C274.688 15.5547 275.088 15.72 275.621 15.72C275.93 15.72 276.218 15.6667 276.485 15.56C276.762 15.4533 276.986 15.2933 277.157 15.08C277.328 14.8667 277.413 14.6 277.413 14.28V8.68H279.157V17H277.413ZM288.726 17H287.75C287.43 17 287.153 16.9307 286.918 16.792C286.694 16.6427 286.524 16.4347 286.406 16.168C286.289 15.9013 286.23 15.5867 286.23 15.224V15.08L286.726 15.608H286.166C286.006 16.12 285.713 16.5147 285.286 16.792C284.86 17.0587 284.342 17.192 283.734 17.192C282.881 17.192 282.22 16.968 281.75 16.52C281.281 16.072 281.046 15.4693 281.046 14.712C281.046 14.1573 281.18 13.6987 281.446 13.336C281.724 12.9627 282.124 12.6853 282.646 12.504C283.169 12.312 283.82 12.216 284.598 12.216H286.102V11.512C286.102 11.0107 285.964 10.6213 285.686 10.344C285.409 10.056 284.977 9.912 284.39 9.912C283.91 9.912 283.51 10.024 283.19 10.248C282.881 10.4613 282.62 10.728 282.406 11.048L281.366 10.104C281.644 9.63467 282.033 9.25067 282.534 8.952C283.046 8.64267 283.702 8.488 284.502 8.488C285.569 8.488 286.39 8.744 286.966 9.256C287.553 9.75733 287.846 10.472 287.846 11.4V15.576H288.726V17ZM286.102 13.336H284.63C284.022 13.336 283.569 13.432 283.27 13.624C282.972 13.816 282.822 14.0933 282.822 14.456V14.744C282.822 15.1067 282.95 15.384 283.206 15.576C283.462 15.768 283.804 15.864 284.23 15.864C284.593 15.864 284.913 15.8107 285.19 15.704C285.468 15.5973 285.686 15.4427 285.846 15.24C286.017 15.0373 286.102 14.8027 286.102 14.536V13.336ZM293.332 17H292.228C291.63 17 291.182 16.8453 290.884 16.536C290.585 16.216 290.436 15.7893 290.436 15.256V5.16H292.18V15.576H293.332V17ZM301.995 17.192C300.79 17.192 299.857 16.8027 299.195 16.024C298.534 15.2347 298.203 14.1733 298.203 12.84C298.203 11.5067 298.534 10.4507 299.195 9.672C299.857 8.88267 300.79 8.488 301.995 8.488C302.827 8.488 303.51 8.67467 304.043 9.048C304.577 9.42133 304.961 9.91733 305.195 10.536L303.755 11.208C303.638 10.824 303.43 10.52 303.131 10.296C302.833 10.0613 302.454 9.944 301.995 9.944C301.355 9.944 300.87 10.1467 300.539 10.552C300.209 10.9467 300.043 11.464 300.043 12.104V13.576C300.043 14.216 300.209 14.7387 300.539 15.144C300.87 15.5493 301.355 15.752 301.995 15.752C302.497 15.752 302.902 15.6293 303.211 15.384C303.521 15.128 303.766 14.792 303.947 14.376L305.259 15.08C304.993 15.7627 304.582 16.2853 304.027 16.648C303.473 17.0107 302.795 17.192 301.995 17.192ZM310.074 17.192C309.295 17.192 308.618 17.016 308.042 16.664C307.477 16.3013 307.034 15.7947 306.714 15.144C306.405 14.4933 306.25 13.7253 306.25 12.84C306.25 11.9547 306.405 11.1867 306.714 10.536C307.034 9.88533 307.477 9.384 308.042 9.032C308.618 8.66933 309.295 8.488 310.074 8.488C310.842 8.488 311.509 8.66933 312.074 9.032C312.65 9.384 313.093 9.88533 313.402 10.536C313.722 11.1867 313.882 11.9547 313.882 12.84C313.882 13.7253 313.722 14.4933 313.402 15.144C313.093 15.7947 312.65 16.3013 312.074 16.664C311.509 17.016 310.842 17.192 310.074 17.192ZM310.074 15.736C310.671 15.736 311.146 15.5547 311.498 15.192C311.861 14.8187 312.042 14.2693 312.042 13.544V12.136C312.042 11.4107 311.861 10.8667 311.498 10.504C311.146 10.1307 310.671 9.944 310.074 9.944C309.487 9.944 309.007 10.1307 308.634 10.504C308.271 10.8667 308.09 11.4107 308.09 12.136V13.544C308.09 14.2693 308.271 14.8187 308.634 15.192C309.007 15.5547 309.487 15.736 310.074 15.736ZM318.451 17.192C317.672 17.192 317.011 17.0533 316.467 16.776C315.933 16.4987 315.469 16.1147 315.075 15.624L316.195 14.6C316.504 14.9627 316.845 15.2507 317.219 15.464C317.603 15.6773 318.045 15.784 318.547 15.784C319.059 15.784 319.437 15.688 319.683 15.496C319.939 15.2933 320.067 15.016 320.067 14.664C320.067 14.3973 319.976 14.1733 319.795 13.992C319.624 13.8107 319.32 13.688 318.883 13.624L318.115 13.528C317.56 13.4427 317.075 13.304 316.659 13.112C316.243 12.92 315.923 12.6587 315.699 12.328C315.485 11.9867 315.379 11.56 315.379 11.048C315.379 10.2373 315.661 9.608 316.227 9.16C316.803 8.712 317.549 8.488 318.467 8.488C318.968 8.488 319.405 8.54133 319.779 8.648C320.152 8.75467 320.483 8.90933 320.771 9.112C321.059 9.304 321.325 9.53867 321.571 9.816L320.499 10.84C320.285 10.584 320.003 10.3653 319.651 10.184C319.309 9.992 318.915 9.896 318.467 9.896C317.997 9.896 317.645 9.992 317.411 10.184C317.176 10.3653 317.059 10.616 317.059 10.936C317.059 11.256 317.16 11.496 317.363 11.656C317.576 11.816 317.901 11.9333 318.339 12.008L319.107 12.104C320.024 12.2427 320.691 12.5147 321.107 12.92C321.533 13.3147 321.747 13.848 321.747 14.52C321.747 15.0533 321.608 15.5227 321.331 15.928C321.064 16.3227 320.685 16.632 320.195 16.856C319.704 17.08 319.123 17.192 318.451 17.192ZM327.431 17H325.911C325.314 17 324.855 16.84 324.535 16.52C324.226 16.1893 324.071 15.7413 324.071 15.176V10.104H322.775V8.68H323.479C323.767 8.68 323.965 8.616 324.071 8.488C324.189 8.36 324.247 8.152 324.247 7.864V6.408H325.815V8.68H327.559V10.104H325.815V15.576H327.431V17ZM335.872 17.192C335.094 17.192 334.432 17.0533 333.888 16.776C333.355 16.4987 332.891 16.1147 332.496 15.624L333.616 14.6C333.926 14.9627 334.267 15.2507 334.64 15.464C335.024 15.6773 335.467 15.784 335.968 15.784C336.48 15.784 336.859 15.688 337.104 15.496C337.36 15.2933 337.488 15.016 337.488 14.664C337.488 14.3973 337.398 14.1733 337.216 13.992C337.046 13.8107 336.742 13.688 336.304 13.624L335.536 13.528C334.982 13.4427 334.496 13.304 334.08 13.112C333.664 12.92 333.344 12.6587 333.12 12.328C332.907 11.9867 332.8 11.56 332.8 11.048C332.8 10.2373 333.083 9.608 333.648 9.16C334.224 8.712 334.971 8.488 335.888 8.488C336.39 8.488 336.827 8.54133 337.2 8.648C337.574 8.75467 337.904 8.90933 338.192 9.112C338.48 9.304 338.747 9.53867 338.992 9.816L337.92 10.84C337.707 10.584 337.424 10.3653 337.072 10.184C336.731 9.992 336.336 9.896 335.888 9.896C335.419 9.896 335.067 9.992 334.832 10.184C334.598 10.3653 334.48 10.616 334.48 10.936C334.48 11.256 334.582 11.496 334.784 11.656C334.998 11.816 335.323 11.9333 335.76 12.008L336.528 12.104C337.446 12.2427 338.112 12.5147 338.528 12.92C338.955 13.3147 339.168 13.848 339.168 14.52C339.168 15.0533 339.03 15.5227 338.752 15.928C338.486 16.3227 338.107 16.632 337.616 16.856C337.126 17.08 336.544 17.192 335.872 17.192ZM348.211 17H347.235C346.915 17 346.637 16.9307 346.403 16.792C346.179 16.6427 346.008 16.4347 345.891 16.168C345.773 15.9013 345.715 15.5867 345.715 15.224V15.08L346.211 15.608H345.651C345.491 16.12 345.197 16.5147 344.771 16.792C344.344 17.0587 343.827 17.192 343.219 17.192C342.365 17.192 341.704 16.968 341.235 16.52C340.765 16.072 340.531 15.4693 340.531 14.712C340.531 14.1573 340.664 13.6987 340.931 13.336C341.208 12.9627 341.608 12.6853 342.131 12.504C342.653 12.312 343.304 12.216 344.083 12.216H345.587V11.512C345.587 11.0107 345.448 10.6213 345.171 10.344C344.893 10.056 344.461 9.912 343.875 9.912C343.395 9.912 342.995 10.024 342.675 10.248C342.365 10.4613 342.104 10.728 341.891 11.048L340.851 10.104C341.128 9.63467 341.517 9.25067 342.019 8.952C342.531 8.64267 343.187 8.488 343.987 8.488C345.053 8.488 345.875 8.744 346.451 9.256C347.037 9.75733 347.331 10.472 347.331 11.4V15.576H348.211V17ZM345.587 13.336H344.115C343.507 13.336 343.053 13.432 342.755 13.624C342.456 13.816 342.307 14.0933 342.307 14.456V14.744C342.307 15.1067 342.435 15.384 342.691 15.576C342.947 15.768 343.288 15.864 343.715 15.864C344.077 15.864 344.397 15.8107 344.675 15.704C344.952 15.5973 345.171 15.4427 345.331 15.24C345.501 15.0373 345.587 14.8027 345.587 14.536V13.336ZM353.651 17H351.587L348.755 8.68H350.483L351.763 12.472L352.611 15.384H352.707L353.555 12.472L354.835 8.68H356.483L353.651 17ZM358.847 7.192C358.484 7.192 358.217 7.10667 358.047 6.936C357.887 6.76533 357.807 6.54667 357.807 6.28V6.008C357.807 5.74133 357.887 5.52267 358.047 5.352C358.217 5.18133 358.484 5.096 358.847 5.096C359.209 5.096 359.471 5.18133 359.631 5.352C359.791 5.52267 359.871 5.74133 359.871 6.008V6.28C359.871 6.54667 359.791 6.76533 359.631 6.936C359.471 7.10667 359.209 7.192 358.847 7.192ZM357.967 17V8.68H359.711V17H357.967ZM363.945 17H362.201V8.68H363.945V10.056H364.025C364.206 9.608 364.478 9.23467 364.841 8.936C365.214 8.63733 365.721 8.488 366.361 8.488C367.214 8.488 367.876 8.77067 368.345 9.336C368.825 9.90133 369.065 10.696 369.065 11.72V17H367.321V11.928C367.321 11.2773 367.193 10.792 366.937 10.472C366.692 10.1413 366.297 9.976 365.753 9.976C365.444 9.976 365.15 10.0293 364.873 10.136C364.606 10.232 364.382 10.3867 364.201 10.6C364.03 10.8133 363.945 11.08 363.945 11.4V17ZM378.794 17.784C378.794 18.36 378.645 18.84 378.346 19.224C378.058 19.6187 377.605 19.912 376.986 20.104C376.368 20.296 375.557 20.392 374.554 20.392C373.658 20.392 372.928 20.312 372.362 20.152C371.808 19.992 371.402 19.7627 371.146 19.464C370.901 19.1653 370.778 18.808 370.778 18.392C370.778 17.9333 370.901 17.5707 371.146 17.304C371.402 17.048 371.754 16.8773 372.202 16.792V16.616C371.893 16.52 371.658 16.36 371.498 16.136C371.338 15.912 371.258 15.6453 371.258 15.336C371.258 14.9093 371.402 14.584 371.69 14.36C371.989 14.1253 372.341 13.96 372.746 13.864V13.8C372.245 13.5653 371.861 13.2347 371.594 12.808C371.338 12.3813 371.21 11.8907 371.21 11.336C371.21 10.7707 371.338 10.2747 371.594 9.848C371.861 9.42133 372.24 9.09067 372.73 8.856C373.232 8.61067 373.829 8.488 374.522 8.488C374.81 8.488 375.077 8.50933 375.322 8.552C375.578 8.59467 375.818 8.65867 376.042 8.744V8.52C376.042 8.14667 376.133 7.85867 376.314 7.656C376.496 7.45333 376.768 7.352 377.13 7.352H378.394V8.744H376.714V9.08C377.088 9.336 377.37 9.656 377.562 10.04C377.765 10.424 377.866 10.856 377.866 11.336C377.866 11.8907 377.733 12.3813 377.466 12.808C377.21 13.2347 376.832 13.5653 376.33 13.8C375.84 14.0347 375.242 14.152 374.538 14.152C374.336 14.152 374.138 14.1413 373.946 14.12C373.765 14.0987 373.6 14.0667 373.45 14.024C373.248 14.0987 373.066 14.2053 372.906 14.344C372.746 14.472 372.666 14.6427 372.666 14.856C372.666 15.08 372.762 15.24 372.954 15.336C373.157 15.432 373.445 15.48 373.818 15.48H375.866C376.89 15.48 377.632 15.6827 378.09 16.088C378.56 16.4933 378.794 17.0587 378.794 17.784ZM377.162 17.976C377.162 17.6773 377.045 17.4427 376.81 17.272C376.586 17.112 376.192 17.032 375.626 17.032H372.81C372.618 17.1387 372.474 17.272 372.378 17.432C372.293 17.6027 372.25 17.7893 372.25 17.992C372.25 18.3227 372.384 18.5947 372.65 18.808C372.917 19.0213 373.376 19.128 374.026 19.128H375.114C375.797 19.128 376.309 19.032 376.65 18.84C376.992 18.648 377.162 18.36 377.162 17.976ZM374.538 12.904C375.05 12.904 375.445 12.7867 375.722 12.552C376.01 12.3173 376.154 11.9653 376.154 11.496V11.16C376.154 10.6907 376.01 10.3387 375.722 10.104C375.445 9.86933 375.05 9.752 374.538 9.752C374.026 9.752 373.626 9.86933 373.338 10.104C373.061 10.3387 372.922 10.6907 372.922 11.16V11.496C372.922 11.9653 373.061 12.3173 373.338 12.552C373.626 12.7867 374.026 12.904 374.538 12.904ZM382.732 17.192C381.953 17.192 381.292 17.0533 380.748 16.776C380.214 16.4987 379.75 16.1147 379.356 15.624L380.476 14.6C380.785 14.9627 381.126 15.2507 381.5 15.464C381.884 15.6773 382.326 15.784 382.828 15.784C383.34 15.784 383.718 15.688 383.964 15.496C384.22 15.2933 384.348 15.016 384.348 14.664C384.348 14.3973 384.257 14.1733 384.076 13.992C383.905 13.8107 383.601 13.688 383.164 13.624L382.396 13.528C381.841 13.4427 381.356 13.304 380.94 13.112C380.524 12.92 380.204 12.6587 379.98 12.328C379.766 11.9867 379.66 11.56 379.66 11.048C379.66 10.2373 379.942 9.608 380.508 9.16C381.084 8.712 381.83 8.488 382.748 8.488C383.249 8.488 383.686 8.54133 384.06 8.648C384.433 8.75467 384.764 8.90933 385.052 9.112C385.34 9.304 385.606 9.53867 385.852 9.816L384.78 10.84C384.566 10.584 384.284 10.3653 383.932 10.184C383.59 9.992 383.196 9.896 382.748 9.896C382.278 9.896 381.926 9.992 381.692 10.184C381.457 10.3653 381.34 10.616 381.34 10.936C381.34 11.256 381.441 11.496 381.644 11.656C381.857 11.816 382.182 11.9333 382.62 12.008L383.388 12.104C384.305 12.2427 384.972 12.5147 385.388 12.92C385.814 13.3147 386.028 13.848 386.028 14.52C386.028 15.0533 385.889 15.5227 385.612 15.928C385.345 16.3227 384.966 16.632 384.476 16.856C383.985 17.08 383.404 17.192 382.732 17.192Z" fill="white"/>
<path d="M5.536 122.312H4.176V120.328L4.288 120.104V110.728L4.176 110.504V108.52H5.536V110.504L5.44 110.728V120.104L5.536 120.328V122.312ZM4.736 120.968C4.10667 120.968 3.53067 120.888 3.008 120.728C2.496 120.557 2.048 120.333 1.664 120.056C1.28 119.768 0.954667 119.459 0.688 119.128L1.856 118.072C2.08 118.349 2.336 118.6 2.624 118.824C2.92267 119.048 3.25333 119.229 3.616 119.368C3.98933 119.496 4.39467 119.56 4.832 119.56C5.32267 119.56 5.73333 119.48 6.064 119.32C6.40533 119.16 6.66133 118.952 6.832 118.696C7.00267 118.429 7.088 118.131 7.088 117.8C7.088 117.523 7.03467 117.277 6.928 117.064C6.82133 116.851 6.64 116.669 6.384 116.52C6.128 116.36 5.78133 116.237 5.344 116.152L4.4 115.96C3.6 115.789 2.94933 115.565 2.448 115.288C1.95733 115.011 1.59467 114.675 1.36 114.28C1.136 113.875 1.024 113.4 1.024 112.856C1.024 112.28 1.168 111.768 1.456 111.32C1.744 110.872 2.176 110.52 2.752 110.264C3.33867 109.997 4.06933 109.864 4.944 109.864C5.81867 109.864 6.56 110.024 7.168 110.344C7.776 110.664 8.26667 111.069 8.64 111.56L7.456 112.536C7.22133 112.227 6.88533 111.939 6.448 111.672C6.01067 111.405 5.47733 111.272 4.848 111.272C4.10133 111.272 3.552 111.421 3.2 111.72C2.85867 112.008 2.688 112.36 2.688 112.776C2.688 113.085 2.752 113.347 2.88 113.56C3.008 113.763 3.2 113.928 3.456 114.056C3.72267 114.184 4.04267 114.291 4.416 114.376L5.456 114.616C6.224 114.787 6.848 115.005 7.328 115.272C7.81867 115.539 8.18133 115.869 8.416 116.264C8.65067 116.648 8.768 117.123 8.768 117.688C8.768 118.296 8.608 118.851 8.288 119.352C7.97867 119.853 7.52533 120.248 6.928 120.536C6.33067 120.824 5.6 120.968 4.736 120.968ZM14.4101 121.192C13.5995 121.192 12.8955 121.016 12.2981 120.664C11.7115 120.312 11.2581 119.811 10.9381 119.16C10.6288 118.509 10.4741 117.736 10.4741 116.84C10.4741 116.029 10.5915 115.267 10.8261 114.552C11.0715 113.837 11.3915 113.181 11.7861 112.584C12.1808 111.987 12.6075 111.453 13.0661 110.984C13.5355 110.515 14.0048 110.131 14.4741 109.832H16.8741C16.0315 110.44 15.3061 111.032 14.6981 111.608C14.0901 112.173 13.5888 112.771 13.1941 113.4C12.8101 114.029 12.5275 114.744 12.3461 115.544L12.4581 115.576C12.6181 115.277 12.8101 115.005 13.0341 114.76C13.2581 114.515 13.5355 114.317 13.8661 114.168C14.1968 114.019 14.5915 113.944 15.0501 113.944C15.6795 113.944 16.2395 114.088 16.7301 114.376C17.2315 114.653 17.6208 115.053 17.8981 115.576C18.1861 116.088 18.3301 116.696 18.3301 117.4C18.3301 118.136 18.1648 118.792 17.8341 119.368C17.5141 119.944 17.0608 120.392 16.4741 120.712C15.8981 121.032 15.2101 121.192 14.4101 121.192ZM14.4101 119.72C14.8368 119.72 15.1995 119.64 15.4981 119.48C15.8075 119.32 16.0475 119.085 16.2181 118.776C16.3888 118.467 16.4741 118.093 16.4741 117.656V117.448C16.4741 117.011 16.3888 116.637 16.2181 116.328C16.0475 116.019 15.8075 115.784 15.4981 115.624C15.1995 115.464 14.8368 115.384 14.4101 115.384C13.9728 115.384 13.5995 115.464 13.2901 115.624C12.9915 115.784 12.7568 116.019 12.5861 116.328C12.4261 116.637 12.3461 117.011 12.3461 117.448V117.656C12.3461 118.093 12.4261 118.467 12.5861 118.776C12.7568 119.085 12.9915 119.32 13.2901 119.48C13.5995 119.64 13.9728 119.72 14.4101 119.72ZM22.2119 114.424H23.3479C24.0412 114.424 24.5532 114.275 24.8839 113.976C25.2145 113.677 25.3799 113.304 25.3799 112.856V112.744C25.3799 112.232 25.2199 111.843 24.8999 111.576C24.5799 111.299 24.1479 111.16 23.6039 111.16C23.0812 111.16 22.6279 111.283 22.2439 111.528C21.8705 111.763 21.5612 112.093 21.3159 112.52L20.0999 111.48C20.3345 111.149 20.6065 110.845 20.9159 110.568C21.2359 110.291 21.6145 110.067 22.0519 109.896C22.4999 109.725 23.0332 109.64 23.6519 109.64C24.3559 109.64 24.9799 109.757 25.5239 109.992C26.0679 110.216 26.4945 110.541 26.8039 110.968C27.1239 111.395 27.2839 111.912 27.2839 112.52C27.2839 113.235 27.0759 113.811 26.6599 114.248C26.2439 114.675 25.7372 114.952 25.1399 115.08V115.16C25.5665 115.235 25.9559 115.389 26.3079 115.624C26.6599 115.848 26.9425 116.152 27.1559 116.536C27.3799 116.92 27.4919 117.384 27.4919 117.928C27.4919 118.579 27.3212 119.149 26.9799 119.64C26.6492 120.12 26.1852 120.499 25.5879 120.776C24.9905 121.053 24.2972 121.192 23.5079 121.192C22.8145 121.192 22.2225 121.096 21.7319 120.904C21.2519 120.712 20.8465 120.467 20.5159 120.168C20.1852 119.859 19.9025 119.533 19.6679 119.192L20.9959 118.152C21.2732 118.6 21.5932 118.968 21.9559 119.256C22.3292 119.533 22.8412 119.672 23.4919 119.672C24.1745 119.672 24.6972 119.512 25.0599 119.192C25.4225 118.861 25.6039 118.408 25.6039 117.832V117.72C25.6039 117.144 25.4119 116.707 25.0279 116.408C24.6545 116.109 24.1105 115.96 23.3959 115.96H22.2119V114.424ZM31.0696 118.776C31.475 118.776 31.7683 118.877 31.9496 119.08C32.1416 119.283 32.2376 119.544 32.2376 119.864V120.12C32.2376 120.643 32.0936 121.192 31.8056 121.768C31.5283 122.344 31.1496 122.829 30.6696 123.224H29.3736C29.715 122.883 29.9976 122.547 30.2216 122.216C30.4456 121.896 30.6163 121.539 30.7336 121.144C30.4563 121.091 30.2483 120.973 30.1096 120.792C29.9816 120.6 29.9176 120.376 29.9176 120.12V119.864C29.9176 119.544 30.0083 119.283 30.1896 119.08C30.3816 118.877 30.675 118.776 31.0696 118.776ZM41.503 109.832V111.4H36.543L36.255 115.352H36.367C36.5377 115.053 36.719 114.797 36.911 114.584C37.1137 114.36 37.359 114.189 37.647 114.072C37.935 113.955 38.287 113.896 38.703 113.896C39.343 113.896 39.9137 114.035 40.415 114.312C40.927 114.589 41.3323 114.989 41.631 115.512C41.9297 116.024 42.079 116.648 42.079 117.384C42.079 118.12 41.9243 118.776 41.615 119.352C41.3057 119.928 40.8523 120.381 40.255 120.712C39.6577 121.032 38.9377 121.192 38.095 121.192C37.4337 121.192 36.8683 121.096 36.399 120.904C35.9297 120.712 35.535 120.467 35.215 120.168C34.895 119.859 34.623 119.533 34.399 119.192L35.711 118.152C35.9883 118.589 36.2977 118.952 36.639 119.24C36.9803 119.528 37.4657 119.672 38.095 119.672C38.7777 119.672 39.295 119.485 39.647 119.112C40.0097 118.739 40.191 118.227 40.191 117.576V117.416C40.191 116.776 40.0097 116.28 39.647 115.928C39.295 115.565 38.7883 115.384 38.127 115.384C37.6577 115.384 37.2737 115.475 36.975 115.656C36.687 115.837 36.4417 116.04 36.239 116.264L34.751 116.056L35.167 109.832H41.503ZM47.7688 121.192C46.8514 121.192 46.0888 120.963 45.4808 120.504C44.8834 120.045 44.4408 119.389 44.1528 118.536C43.8754 117.672 43.7368 116.632 43.7368 115.416C43.7368 114.2 43.8754 113.16 44.1528 112.296C44.4408 111.432 44.8834 110.776 45.4808 110.328C46.0888 109.869 46.8514 109.64 47.7688 109.64C48.6968 109.64 49.4594 109.869 50.0568 110.328C50.6541 110.776 51.0914 111.432 51.3688 112.296C51.6568 113.16 51.8008 114.2 51.8008 115.416C51.8008 116.632 51.6568 117.672 51.3688 118.536C51.0914 119.389 50.6541 120.045 50.0568 120.504C49.4594 120.963 48.6968 121.192 47.7688 121.192ZM47.7688 119.656C48.2914 119.656 48.7021 119.523 49.0008 119.256C49.3101 118.979 49.5341 118.595 49.6728 118.104C49.8114 117.613 49.8808 117.043 49.8808 116.392V114.44C49.8808 113.789 49.8114 113.219 49.6728 112.728C49.5341 112.237 49.3101 111.859 49.0008 111.592C48.7021 111.315 48.2914 111.176 47.7688 111.176C47.2568 111.176 46.8461 111.315 46.5368 111.592C46.2274 111.859 46.0034 112.237 45.8648 112.728C45.7261 113.219 45.6568 113.789 45.6568 114.44V116.392C45.6568 117.043 45.7261 117.613 45.8648 118.104C46.0034 118.595 46.2274 118.979 46.5368 119.256C46.8461 119.523 47.2568 119.656 47.7688 119.656ZM57.3625 121.192C56.4452 121.192 55.6825 120.963 55.0745 120.504C54.4772 120.045 54.0345 119.389 53.7465 118.536C53.4692 117.672 53.3305 116.632 53.3305 115.416C53.3305 114.2 53.4692 113.16 53.7465 112.296C54.0345 111.432 54.4772 110.776 55.0745 110.328C55.6825 109.869 56.4452 109.64 57.3625 109.64C58.2905 109.64 59.0532 109.869 59.6505 110.328C60.2478 110.776 60.6852 111.432 60.9625 112.296C61.2505 113.16 61.3945 114.2 61.3945 115.416C61.3945 116.632 61.2505 117.672 60.9625 118.536C60.6852 119.389 60.2478 120.045 59.6505 120.504C59.0532 120.963 58.2905 121.192 57.3625 121.192ZM57.3625 119.656C57.8852 119.656 58.2958 119.523 58.5945 119.256C58.9038 118.979 59.1278 118.595 59.2665 118.104C59.4052 117.613 59.4745 117.043 59.4745 116.392V114.44C59.4745 113.789 59.4052 113.219 59.2665 112.728C59.1278 112.237 58.9038 111.859 58.5945 111.592C58.2958 111.315 57.8852 111.176 57.3625 111.176C56.8505 111.176 56.4398 111.315 56.1305 111.592C55.8212 111.859 55.5972 112.237 55.4585 112.728C55.3198 113.219 55.2505 113.789 55.2505 114.44V116.392C55.2505 117.043 55.3198 117.613 55.4585 118.104C55.5972 118.595 55.8212 118.979 56.1305 119.256C56.4398 119.523 56.8505 119.656 57.3625 119.656Z" fill="white"/>
<path d="M5.536 228.312H4.176V226.328L4.288 226.104V216.728L4.176 216.504V214.52H5.536V216.504L5.44 216.728V226.104L5.536 226.328V228.312ZM4.736 226.968C4.10667 226.968 3.53067 226.888 3.008 226.728C2.496 226.557 2.048 226.333 1.664 226.056C1.28 225.768 0.954667 225.459 0.688 225.128L1.856 224.072C2.08 224.349 2.336 224.6 2.624 224.824C2.92267 225.048 3.25333 225.229 3.616 225.368C3.98933 225.496 4.39467 225.56 4.832 225.56C5.32267 225.56 5.73333 225.48 6.064 225.32C6.40533 225.16 6.66133 224.952 6.832 224.696C7.00267 224.429 7.088 224.131 7.088 223.8C7.088 223.523 7.03467 223.277 6.928 223.064C6.82133 222.851 6.64 222.669 6.384 222.52C6.128 222.36 5.78133 222.237 5.344 222.152L4.4 221.96C3.6 221.789 2.94933 221.565 2.448 221.288C1.95733 221.011 1.59467 220.675 1.36 220.28C1.136 219.875 1.024 219.4 1.024 218.856C1.024 218.28 1.168 217.768 1.456 217.32C1.744 216.872 2.176 216.52 2.752 216.264C3.33867 215.997 4.06933 215.864 4.944 215.864C5.81867 215.864 6.56 216.024 7.168 216.344C7.776 216.664 8.26667 217.069 8.64 217.56L7.456 218.536C7.22133 218.227 6.88533 217.939 6.448 217.672C6.01067 217.405 5.47733 217.272 4.848 217.272C4.10133 217.272 3.552 217.421 3.2 217.72C2.85867 218.008 2.688 218.36 2.688 218.776C2.688 219.085 2.752 219.347 2.88 219.56C3.008 219.763 3.2 219.928 3.456 220.056C3.72267 220.184 4.04267 220.291 4.416 220.376L5.456 220.616C6.224 220.787 6.848 221.005 7.328 221.272C7.81867 221.539 8.18133 221.869 8.416 222.264C8.65067 222.648 8.768 223.123 8.768 223.688C8.768 224.296 8.608 224.851 8.288 225.352C7.97867 225.853 7.52533 226.248 6.928 226.536C6.33067 226.824 5.6 226.968 4.736 226.968ZM12.6181 220.424H13.7541C14.4475 220.424 14.9595 220.275 15.2901 219.976C15.6208 219.677 15.7861 219.304 15.7861 218.856V218.744C15.7861 218.232 15.6261 217.843 15.3061 217.576C14.9861 217.299 14.5541 217.16 14.0101 217.16C13.4875 217.16 13.0341 217.283 12.6501 217.528C12.2768 217.763 11.9675 218.093 11.7221 218.52L10.5061 217.48C10.7408 217.149 11.0128 216.845 11.3221 216.568C11.6421 216.291 12.0208 216.067 12.4581 215.896C12.9061 215.725 13.4395 215.64 14.0581 215.64C14.7621 215.64 15.3861 215.757 15.9301 215.992C16.4741 216.216 16.9008 216.541 17.2101 216.968C17.5301 217.395 17.6901 217.912 17.6901 218.52C17.6901 219.235 17.4821 219.811 17.0661 220.248C16.6501 220.675 16.1435 220.952 15.5461 221.08V221.16C15.9728 221.235 16.3621 221.389 16.7141 221.624C17.0661 221.848 17.3488 222.152 17.5621 222.536C17.7861 222.92 17.8981 223.384 17.8981 223.928C17.8981 224.579 17.7275 225.149 17.3861 225.64C17.0555 226.12 16.5915 226.499 15.9941 226.776C15.3968 227.053 14.7035 227.192 13.9141 227.192C13.2208 227.192 12.6288 227.096 12.1381 226.904C11.6581 226.712 11.2528 226.467 10.9221 226.168C10.5915 225.859 10.3088 225.533 10.0741 225.192L11.4021 224.152C11.6795 224.6 11.9995 224.968 12.3621 225.256C12.7355 225.533 13.2475 225.672 13.8981 225.672C14.5808 225.672 15.1035 225.512 15.4661 225.192C15.8288 224.861 16.0101 224.408 16.0101 223.832V223.72C16.0101 223.144 15.8181 222.707 15.4341 222.408C15.0608 222.109 14.5168 221.96 13.8021 221.96H12.6181V220.424ZM28.1479 227H20.6279V225.496H23.6999V217.144H23.5719L20.9799 219.912L19.8759 218.92L22.7079 215.832H25.4919V225.496H28.1479V227ZM31.0696 224.776C31.475 224.776 31.7683 224.877 31.9496 225.08C32.1416 225.283 32.2376 225.544 32.2376 225.864V226.12C32.2376 226.643 32.0936 227.192 31.8056 227.768C31.5283 228.344 31.1496 228.829 30.6696 229.224H29.3736C29.715 228.883 29.9976 228.547 30.2216 228.216C30.4456 227.896 30.6163 227.539 30.7336 227.144C30.4563 227.091 30.2483 226.973 30.1096 226.792C29.9816 226.6 29.9176 226.376 29.9176 226.12V225.864C29.9176 225.544 30.0083 225.283 30.1896 225.08C30.3816 224.877 30.675 224.776 31.0696 224.776ZM38.015 227H36.111L40.159 217.32H35.935V219.384H34.383V215.832H41.951V217.4L38.015 227ZM51.0968 215.832V217.4H46.1368L45.8488 221.352H45.9608C46.1314 221.053 46.3128 220.797 46.5048 220.584C46.7074 220.36 46.9528 220.189 47.2408 220.072C47.5288 219.955 47.8808 219.896 48.2968 219.896C48.9368 219.896 49.5074 220.035 50.0088 220.312C50.5208 220.589 50.9261 220.989 51.2248 221.512C51.5234 222.024 51.6728 222.648 51.6728 223.384C51.6728 224.12 51.5181 224.776 51.2088 225.352C50.8994 225.928 50.4461 226.381 49.8488 226.712C49.2514 227.032 48.5314 227.192 47.6888 227.192C47.0274 227.192 46.4621 227.096 45.9928 226.904C45.5234 226.712 45.1288 226.467 44.8088 226.168C44.4888 225.859 44.2168 225.533 43.9928 225.192L45.3048 224.152C45.5821 224.589 45.8914 224.952 46.2328 225.24C46.5741 225.528 47.0594 225.672 47.6888 225.672C48.3714 225.672 48.8888 225.485 49.2408 225.112C49.6034 224.739 49.7848 224.227 49.7848 223.576V223.416C49.7848 222.776 49.6034 222.28 49.2408 221.928C48.8888 221.565 48.3821 221.384 47.7208 221.384C47.2514 221.384 46.8674 221.475 46.5688 221.656C46.2808 221.837 46.0354 222.04 45.8328 222.264L44.3448 222.056L44.7608 215.832H51.0968ZM57.3625 227.192C56.4452 227.192 55.6825 226.963 55.0745 226.504C54.4772 226.045 54.0345 225.389 53.7465 224.536C53.4692 223.672 53.3305 222.632 53.3305 221.416C53.3305 220.2 53.4692 219.16 53.7465 218.296C54.0345 217.432 54.4772 216.776 55.0745 216.328C55.6825 215.869 56.4452 215.64 57.3625 215.64C58.2905 215.64 59.0532 215.869 59.6505 216.328C60.2478 216.776 60.6852 217.432 60.9625 218.296C61.2505 219.16 61.3945 220.2 61.3945 221.416C61.3945 222.632 61.2505 223.672 60.9625 224.536C60.6852 225.389 60.2478 226.045 59.6505 226.504C59.0532 226.963 58.2905 227.192 57.3625 227.192ZM57.3625 225.656C57.8852 225.656 58.2958 225.523 58.5945 225.256C58.9038 224.979 59.1278 224.595 59.2665 224.104C59.4052 223.613 59.4745 223.043 59.4745 222.392V220.44C59.4745 219.789 59.4052 219.219 59.2665 218.728C59.1278 218.237 58.9038 217.859 58.5945 217.592C58.2958 217.315 57.8852 217.176 57.3625 217.176C56.8505 217.176 56.4398 217.315 56.1305 217.592C55.8212 217.859 55.5972 218.237 55.4585 218.728C55.3198 219.219 55.2505 219.789 55.2505 220.44V222.392C55.2505 223.043 55.3198 223.613 55.4585 224.104C55.5972 224.595 55.8212 224.979 56.1305 225.256C56.4398 225.523 56.8505 225.656 57.3625 225.656Z" fill="white"/>
<defs>
<linearGradient id="paint0_linear_9947_1610" x1="48.375" y1="130" x2="0" y2="130" gradientUnits="userSpaceOnUse">
<stop stop-color="white"/>
<stop offset="1" stop-color="white" stop-opacity="0.1"/>
</linearGradient>
<linearGradient id="paint1_linear_9947_1610" x1="48.375" y1="112.5" x2="0" y2="112.5" gradientUnits="userSpaceOnUse">
<stop stop-color="white"/>
<stop offset="1" stop-color="white" stop-opacity="0.1"/>
</linearGradient>
<linearGradient id="paint2_linear_9947_1610" x1="48.375" y1="95" x2="0" y2="95" gradientUnits="userSpaceOnUse">
<stop stop-color="white"/>
<stop offset="1" stop-color="white" stop-opacity="0.1"/>
</linearGradient>
<linearGradient id="paint3_linear_9947_1610" x1="48.375" y1="78" x2="0" y2="78" gradientUnits="userSpaceOnUse">
<stop stop-color="white"/>
<stop offset="1" stop-color="white" stop-opacity="0.1"/>
</linearGradient>
<linearGradient id="paint4_linear_9947_1610" x1="48.375" y1="60" x2="0" y2="60" gradientUnits="userSpaceOnUse">
<stop stop-color="white"/>
<stop offset="1" stop-color="white" stop-opacity="0.1"/>
</linearGradient>
<linearGradient id="paint5_linear_9947_1610" x1="48.375" y1="42.5" x2="0" y2="42.5" gradientUnits="userSpaceOnUse">
<stop stop-color="white"/>
<stop offset="1" stop-color="white" stop-opacity="0.1"/>
</linearGradient>
<linearGradient id="paint6_linear_9947_1610" x1="48.375" y1="25" x2="0" y2="25" gradientUnits="userSpaceOnUse">
<stop stop-color="white"/>
<stop offset="1" stop-color="white" stop-opacity="0.1"/>
</linearGradient>
<linearGradient id="paint7_linear_9947_1610" x1="48.375" y1="12.5" x2="0" y2="12.5" gradientUnits="userSpaceOnUse">
<stop stop-color="white"/>
<stop offset="1" stop-color="white" stop-opacity="0.1"/>
</linearGradient>
</defs>
</svg>
